<svg width="" height="" viewBox="0 0 548 645" fill="none" xmlns="http://www.w3.org/2000/svg">
<path d="M0 622.004L15.2222 626.142C30.4444 630.125 60.8889 638.633 91.3333 642.617C121.778 646.755 152.222 646.755 182.667 632.33C213.111 617.75 243.556 589.132 274 582.828C304.444 576.757 334.889 592.999 365.333 599.303C395.778 605.375 426.222 601.507 456.667 597.253C487.111 592.999 517.555 589.132 532.778 586.928L548 584.878V0L512 0C496.778 0 479.444 0 449 0C418.556 0 400 3.67824e-05 365.333 3.05176e-05C342 3.05176e-05 304.444 0 274 0C243.556 0 235.444 0 205 0C174.556 0 146.444 0 116 0C85.5556 0 64.2223 0 49 0L3.05176e-05 0L0 622.004Z" fill="#5000CA" fill-opacity="0.4"/>
</svg>
